<svg xmlns="http://www.w3.org/2000/svg" xmlns:xlink="http://www.w3.org/1999/xlink" viewBox="0 0 431.1 73.2" xmlns:v="https://vecta.io/nano"><g fill="#fff"><use xlink:href="#B"/><path d="M121.1 27.4h-7.7v10.9h7.8c6.6 0 9.1-1.2 9.1-5.5 0-5-3.6-5.4-9.2-5.4zM135 41.5c-3.5 2.6-7.7 2.9-15.6 2.9h-6v9.1h-8.3V21.2h16.3c6.3 0 10.9.3 14.1 2.8 2.3 1.9 3.4 4.8 3.4 8.6-.2 4.1-1.3 7.1-3.9 8.9z"/><use xlink:href="#C"/><use xlink:href="#D"/><use xlink:href="#E"/><path d="M274.2 53.5V21.2h8.4v25.6h20.6v6.7h-29zm35.6 0V21.2h8.4v25.6h20.6v6.7h-29z"/><use xlink:href="#F"/><path d="M417.8 53.5L407 41.7h-.2l-10.7 11.8h-10.6l15.6-16.6-14.6-15.7h10.8l9.6 10.5h.2l9.5-10.5h10.6l-14.5 15.4 15.9 16.9h-10.8zM121.1 27.4h-7.7v10.9h7.8c6.6 0 9.1-1.2 9.1-5.5 0-5-3.6-5.4-9.2-5.4zM135 41.5c-3.5 2.6-7.7 2.9-15.6 2.9h-6v9.1h-8.3V21.2h16.3c6.3 0 10.9.3 14.1 2.8 2.3 1.9 3.4 4.8 3.4 8.6-.2 4.1-1.4 7-3.9 8.9z"/><use xlink:href="#C"/><use xlink:href="#D"/><use xlink:href="#E"/><path d="M274.2 53.5V21.2h8.4v25.6h20.5v6.7zm35.6 0V21.2h8.4v25.6h20.5v6.7z"/><use xlink:href="#F"/><path d="M417.8 53.5L407 41.7h-.2l-10.7 11.8h-10.6l15.6-16.6-14.6-15.7h10.8l9.6 10.5h.2l9.5-10.5h10.6l-14.5 15.4 15.9 16.9z"/><use xlink:href="#B"/></g><defs ><path id="B" d="M42.9 0C19.2 0 0 19.2 0 42.9v30.2h27.1V42.9h0c0-8.7 7.1-15.8 15.8-15.8s15.8 7.1 15.8 15.8v16.6h0v2.3h13.5v11.4h13.6V42.9C85.8 19.2 66.6 0 42.9 0h0z"/><path id="C" d="M160.1 28.3h-.2L154 40.4h12.1l-6-12.1zm12.4 25.3l-3.5-7h-17.9l-3.4 7h-9l16.6-32.3h9.9l16.6 32.3h-9.3z"/><path id="D" d="M203.5 27.4h-7.4v9.1h7.5c6.3 0 8.8-.8 8.8-4.7 0-4.1-3.3-4.4-8.9-4.4zm8.9 26.1l-8.6-11.1c-.8.1-1.6.1-2.3.1h-5.3v11.1h-8.4V21.2h15.7c6.3 0 10.9.3 14 2.6 2.4 1.8 3.4 4.3 3.4 7.8 0 3.8-1.2 6.3-3.7 8.1-1.3.9-2.8 1.5-4.3 1.7l9.6 12.1h-10.1z"/><path id="E" d="M246.6 28.3h-.2l-5.9 12.1h12.1l-6-12.1zm12.3 25.3l-3.5-7h-17.9l-3.4 7h-9l16.6-32.3h10l16.6 32.3h-9.4z"/><path id="F" d="M362.2 28.3h-.2l-6 12.1h12.1l-5.9-12.1zm12.4 25.3l-3.5-7h-17.9l-3.4 7h-9l16.6-32.3h10L384 53.5l-9.4.1z"/></defs></svg>