<?xml version="1.0" encoding="utf-8"?>
<!-- Generator: Adobe Illustrator 23.0.1, SVG Export Plug-In . SVG Version: 6.00 Build 0)  -->
<svg version="1.1" id="Layer_1" xmlns="http://www.w3.org/2000/svg" xmlns:xlink="http://www.w3.org/1999/xlink" x="0px" y="0px"
	 viewBox="0 0 431.1 73.2" style="enable-background:new 0 0 431.1 73.2;" xml:space="preserve">
<style type="text/css">
	.st0{fill:#FFFFFF;}
</style>
<path class="st0" d="M42.9,0C19.2,0,0,19.2,0,42.9c0,0,0,0,0,0v30.2h27.1V42.9l0,0c0-8.7,7.1-15.8,15.8-15.8s15.8,7.1,15.8,15.8
	v16.6l0,0v2.3h13.5v11.4h13.6V42.9C85.8,19.2,66.6,0,42.9,0L42.9,0z"/>
<g>
	<path d="M121.1,27.4h-7.7v10.9h7.8c6.6,0,9.1-1.2,9.1-5.5C130.3,27.8,126.7,27.4,121.1,27.4z M135,41.5c-3.5,2.6-7.7,2.9-15.6,2.9
		h-6v9.1h-8.3V21.2h16.3c6.3,0,10.9,0.3,14.1,2.8c2.3,1.9,3.4,4.8,3.4,8.6C138.7,36.7,137.6,39.7,135,41.5z"/>
	<path d="M160.1,28.3h-0.2L154,40.4h12.1L160.1,28.3z M172.5,53.6l-3.5-7h-17.9l-3.4,7h-9l16.6-32.3h9.9l16.6,32.3L172.5,53.6z"/>
	<path d="M203.5,27.4h-7.4v9.1h7.5c6.3,0,8.8-0.8,8.8-4.7C212.4,27.7,209.1,27.4,203.5,27.4z M212.4,53.5l-8.6-11.1
		c-0.8,0.1-1.6,0.1-2.3,0.1h-5.3v11.1h-8.4V21.2h15.7c6.3,0,10.9,0.3,14,2.6c2.4,1.8,3.4,4.3,3.4,7.8c0,3.8-1.2,6.3-3.7,8.1
		c-1.3,0.9-2.8,1.5-4.3,1.7l9.6,12.1L212.4,53.5z"/>
	<path d="M246.6,28.3h-0.2l-5.9,12.1h12.1L246.6,28.3z M258.9,53.6l-3.5-7h-17.9l-3.4,7h-9l16.6-32.3h10l16.6,32.3L258.9,53.6z"/>
	<path d="M274.2,53.5V21.2h8.4v25.6h20.6v6.7L274.2,53.5z"/>
	<path d="M309.8,53.5V21.2h8.4v25.6h20.6v6.7L309.8,53.5z"/>
	<path d="M362.2,28.3H362l-6,12.1h12.1L362.2,28.3z M374.6,53.6l-3.5-7h-17.9l-3.4,7h-9l16.6-32.3h10L384,53.5L374.6,53.6z"/>
	<path d="M417.8,53.5L407,41.7h-0.2l-10.7,11.8h-10.6l15.6-16.6l-14.6-15.7h10.8l9.6,10.5h0.2l9.5-10.5h10.6l-14.5,15.4l15.9,16.9
		H417.8z"/>
	<path d="M121.1,27.4h-7.7v10.9h7.8c6.6,0,9.1-1.2,9.1-5.5C130.3,27.8,126.7,27.4,121.1,27.4z M135,41.5c-3.5,2.6-7.7,2.9-15.6,2.9
		h-6v9.1h-8.3V21.2h16.3c6.3,0,10.9,0.3,14.1,2.8c2.3,1.9,3.4,4.8,3.4,8.6C138.7,36.7,137.5,39.6,135,41.5z"/>
	<path d="M160.1,28.3h-0.2L154,40.4h12.1L160.1,28.3z M172.5,53.6l-3.5-7h-17.9l-3.4,7h-9l16.6-32.3h9.9l16.6,32.3L172.5,53.6z"/>
	<path d="M203.5,27.4h-7.4v9.1h7.5c6.3,0,8.8-0.8,8.8-4.7C212.4,27.7,209.1,27.4,203.5,27.4z M212.4,53.5l-8.6-11.1
		c-0.8,0.1-1.6,0.1-2.3,0.1h-5.3v11.1h-8.4V21.2h15.7c6.3,0,10.9,0.3,14,2.6c2.4,1.8,3.4,4.3,3.4,7.8c0,3.8-1.2,6.3-3.7,8.1
		c-1.3,0.9-2.8,1.5-4.3,1.7l9.6,12.1L212.4,53.5z"/>
	<path d="M246.6,28.3h-0.2l-5.9,12.1h12.1L246.6,28.3z M258.9,53.6l-3.5-7h-17.9l-3.4,7h-9l16.6-32.3h10l16.6,32.3L258.9,53.6z"/>
	<polygon points="274.2,53.5 274.2,21.2 282.6,21.2 282.6,46.8 303.1,46.8 303.1,53.5 	"/>
	<polygon points="309.8,53.5 309.8,21.2 318.2,21.2 318.2,46.8 338.7,46.8 338.7,53.5 	"/>
	<path d="M362.2,28.3H362l-6,12.1h12.1L362.2,28.3z M374.6,53.6l-3.5-7h-17.9l-3.4,7h-9l16.6-32.3h10L384,53.5L374.6,53.6z"/>
	<polygon points="417.8,53.5 407,41.7 406.8,41.7 396.1,53.5 385.5,53.5 401.1,36.9 386.5,21.2 397.3,21.2 406.9,31.7 407.1,31.7 
		416.6,21.2 427.2,21.2 412.7,36.6 428.6,53.5 	"/>
</g>
<path d="M42.9,0C19.2,0,0,19.2,0,42.9c0,0,0,0,0,0v30.2h27.1V42.9l0,0c0-8.7,7.1-15.8,15.8-15.8s15.8,7.1,15.8,15.8v16.6l0,0v2.3
	h13.5v11.4h13.6V42.9C85.8,19.2,66.6,0,42.9,0L42.9,0z"/>
</svg>
